<svg xmlns="http://www.w3.org/2000/svg" viewBox="0 0 120 120"><defs><style>.cls-1{fill:#1d1d1b;}.cls-2{fill:none;stroke:#1d1d1b;stroke-miterlimit:10;}</style></defs><title>Fichier 5</title><g id="Calque_2" data-name="Calque 2"><g id="Calque_1-2" data-name="Calque 1"><path class="cls-1" d="M60,2A58,58,0,1,1,2,60,58.07,58.07,0,0,1,60,2m0-2a60,60,0,1,0,60,60A60,60,0,0,0,60,0Z"/><path class="cls-2" d="M89.34,46.66a21.66,21.66,0,0,1-6.21,1.7,10.81,10.81,0,0,0,4.75-6A21.56,21.56,0,0,1,81,45a10.81,10.81,0,0,0-18.69,7.4,10.65,10.65,0,0,0,.28,2.46A30.7,30.7,0,0,1,40.32,43.57,10.83,10.83,0,0,0,43.67,58a10.84,10.84,0,0,1-4.9-1.35v.13a10.81,10.81,0,0,0,8.67,10.6,10.54,10.54,0,0,1-2.85.38,10.7,10.7,0,0,1-2-.19,10.81,10.81,0,0,0,10.1,7.5,21.86,21.86,0,0,1-16,4.48,30.61,30.61,0,0,0,16.57,4.85C73.11,84.41,84,67.94,84,53.66c0-.47,0-.94,0-1.4a21.9,21.9,0,0,0,5.39-5.6"/></g></g></svg>